<svg width="228" height="211" viewBox="0 0 228 211" fill="none" xmlns="http://www.w3.org/2000/svg">
<path fill-rule="evenodd" clip-rule="evenodd" d="M21.9295 210.814C16.2379 210.257 11.0819 207.792 6.9304 203.656C3.23084 199.941 1.07137 195.568 0.251101 190.148C0.0334802 188.679 0 183.428 0 150.842V113.241L42.3859 113.275L84.7886 113.326L84.9057 115.099C85.1401 118.881 86.2952 122.545 88.3207 125.955C90.815 130.142 95 133.857 99.3189 135.731C101.997 136.896 104.592 137.554 106.936 137.673L108.978 137.774V174.395V211L66.1568 210.983C42.6203 210.966 22.7163 210.899 21.9295 210.814ZM141.203 210.882C138.725 210.662 135.193 209.683 133 208.636C129.2 206.813 125.484 203.537 123.073 199.907C121.466 197.493 120.227 194.521 119.491 191.33L119.106 189.642L119.072 151.433L119.022 113.241L162.915 113.292C202.722 113.343 206.907 113.36 207.778 113.613C211.327 114.609 213.989 115.808 216.617 117.547C218.241 118.627 221.421 121.852 222.794 123.794C224.619 126.411 226.125 129.99 226.778 133.249C227.063 134.667 227.079 136.322 227.079 160.263V185.758L223.229 185.86C218.224 185.995 215.847 186.484 212.264 188.139C208.782 189.76 204.447 193.491 202.237 196.784C199.592 200.718 197.868 205.85 197.868 209.751V211L169.878 210.966C154.478 210.949 141.571 210.916 141.203 210.882ZM201.048 210.122C201.065 207.134 202.237 203.065 203.911 200.161C206.238 196.142 209.586 192.985 213.52 191.06C216.968 189.389 219.061 188.933 224.016 188.764L227.163 188.663V199.84V211H214.106H201.048V210.122ZM0.451982 97.9276C0.385022 97.8769 0.334802 75.8432 0.334802 48.9638V0.118138H30.6344L84.7886 0V48.9634V98.0458L30.7515 98.0458C14.1454 98.0458 0.502203 97.9951 0.451982 97.9276ZM119.139 97.9276C119.072 97.8769 119.022 75.877 119.022 49.0482V0.286978L161.676 0.270094C185.129 0.25321 204.882 0.25321 205.568 0.270094C207.242 0.337631 209.937 0.861037 211.695 1.48575C219.061 4.10278 224.183 9.45502 226.728 17.171C227.967 20.9362 227.916 20.1088 227.916 36.7565C227.916 50.4495 227.9 51.8171 227.615 53.1341C226.929 56.4603 225.305 60.3943 223.614 62.8762C221.086 66.5907 216.834 70.0519 212.85 71.6221C211.176 72.2975 208.464 72.9897 206.941 73.1416C205.652 73.2936 205.401 73.5638 206.573 73.5638C207.878 73.5638 210.657 74.1885 212.348 74.8638C217.621 76.9574 221.789 80.7058 224.87 86.1424C226.627 89.2322 228 93.9936 228 96.9652V98.0458H173.628C143.714 98.0458 119.189 97.9951 119.139 97.9276Z" fill="white"/>
</svg>
